HIERARCHY
ROOT hip
{
	OFFSET 0.000000 0.000000 0.000000 
	CHANNELS 6 Xposition Yposition Zposition Xrotation Zrotation Yrotation
	JOINT abdomen
	{
		OFFSET 0.000000 3.402643 0.000000 
		CHANNELS 3 Xrotation Zrotation Yrotation
		JOINT chest
		{
			OFFSET 0.000000 8.438565 -0.680529 
			CHANNELS 3 Xrotation Zrotation Yrotation
			JOINT neck
			{
				OFFSET 0.000000 10.207942 -0.272212 
				CHANNELS 3 Xrotation Zrotation Yrotation
				JOINT head
				{
					OFFSET 0.000000 3.130431 0.000000 
					CHANNELS 3 Xrotation Zrotation Yrotation
					End Site
					{
						OFFSET 0.000000 3.130435 0.000000 
					}
				}
			}
			JOINT lCollar
			{
				OFFSET 3.470700 6.669187 -0.816635 
				CHANNELS 3 Yrotation Zrotation Xrotation
				JOINT lShldr
				{
					OFFSET 3.198488 0.000000 0.000000 
					CHANNELS 3 Zrotation Yrotation Xrotation
					JOINT lForeArm
					{
						OFFSET 10.139888 0.000000 0.000000 
						CHANNELS 3 Yrotation Zrotation Xrotation
						JOINT lHand
						{
							OFFSET 8.370511 0.000000 0.000000 
							CHANNELS 3 Zrotation Yrotation Xrotation
							End Site
							{
								OFFSET 4.083176 0.000000 0.000000 
							}
						}
					}
				}
			}
			JOINT rCollar
			{
				OFFSET -3.470700 6.669187 -0.816635 
				CHANNELS 3 Yrotation Zrotation Xrotation
				JOINT rShldr
				{
					OFFSET -3.198488 0.000000 0.000000 
					CHANNELS 3 Zrotation Yrotation Xrotation
					JOINT rForeArm
					{
						OFFSET -10.139888 0.000000 0.000000 
						CHANNELS 3 Yrotation Zrotation Xrotation
						JOINT rHand
						{
							OFFSET -8.370511 0.000000 0.000000 
							CHANNELS 3 Zrotation Yrotation Xrotation
							End Site
							{
								OFFSET -4.083176 0.000000 0.000000 
							}
						}
					}
				}
			}
		}
	}
	JOINT lThigh
	{
		OFFSET 5.308129 -1.633274 1.361059 
		CHANNELS 3 Xrotation Zrotation Yrotation
		JOINT lShin
		{
			OFFSET -2.041588 -20.007561 0.000000 
			CHANNELS 3 Xrotation Zrotation Yrotation
			JOINT lFoot
			{
				OFFSET 0.000000 -19.190928 -1.224953 
				CHANNELS 3 Xrotation Yrotation Zrotation
				End Site
				{
					OFFSET 0.000000 -2.449906 4.627600 
				}
			}
		}
	}
	JOINT rThigh
	{
		OFFSET -5.308129 -1.633274 1.361059 
		CHANNELS 3 Xrotation Zrotation Yrotation
		JOINT rShin
		{
			OFFSET 2.041588 -20.007561 0.000000 
			CHANNELS 3 Xrotation Zrotation Yrotation
			JOINT rFoot
			{
				OFFSET 0.000000 -19.190928 -1.224953 
				CHANNELS 3 Xrotation Yrotation Zrotation
				End Site
				{
					OFFSET 0.000000 -2.449906 4.627600 
				}
			}
		}
	}
}
MOTION
Frames: 8
Frame Time: 0.033333
-0.154997 53.897076 0.238250 178.408218 174.550781 7.403270 22.097576 -11.517514 1.824396 -10.625000 7.890625 5.820313 51.553619 8.070152 2.616707 -74.228516 18.886719 -26.637463 2.000000 -2.000000 0.000000 -75.058594 -1.630859 8.984375 -47.460281 -1.881291 -1.950007 -5.626843 54.533295 -1.662251 -2.000000 2.000000 0.000000 82.910156 -8.535156 -5.733871 51.321606 1.459157 -2.092544 9.524989 -46.903229 -7.538692 -4.165928 14.290302 -15.578058 8.620863 -5.671281 -1.236645 4.103890 7.045711 -16.160908 7.300426 4.194957 -20.085304 2.521918 5.912536 0.334211 -0.812229 2.537071 19.160107 
-0.342353 53.928722 0.447706 178.584000 174.550781 7.247021 22.410002 -11.610002 1.987893 -10.957032 8.242188 5.878908 51.553619 8.070152 2.616707 -75.117188 18.027340 -26.572266 2.000000 -2.000000 0.000000 -75.556641 -1.884766 9.218428 -47.460281 -1.881291 -1.950007 -5.597205 54.249855 -1.378507 -2.000000 2.000000 0.000000 82.373047 -8.710938 -5.966796 51.321606 1.459157 -2.092544 9.666232 -46.738823 -7.535686 -4.321132 14.103353 -15.380357 8.992696 -5.669916 -1.298303 4.080334 7.587197 -15.927760 7.420970 3.954089 -19.565876 2.538532 5.916052 0.335005 -0.303729 3.041913 19.149054 
-0.514510 53.936615 0.662472 178.759781 174.375000 6.905254 22.598989 -11.767371 1.904246 -11.123047 8.583984 5.958489 51.553619 8.070152 2.616707 -75.800781 17.207031 -26.582033 2.000000 -2.000000 0.000000 -75.898438 -2.089844 9.110971 -47.460281 -1.881291 -1.950007 -5.488608 53.877941 -1.252040 -2.000000 2.000000 0.000000 81.992188 -8.515624 -6.269531 50.980087 1.449977 -2.102856 9.762917 -46.896225 -7.163105 -4.468423 13.918627 -15.240833 9.502578 -5.477776 -1.467721 4.473144 7.763914 -16.331312 7.385466 3.919510 -19.209158 2.539484 5.915647 0.335997 0.236908 2.917076 19.158703 
-0.646330 53.912891 0.925214 178.935562 174.375000 6.573223 22.910635 -11.850729 2.071146 -11.435547 9.101563 6.075764 51.553619 8.070152 2.616707 -76.689453 16.367186 -26.471857 2.000000 -2.000000 0.000000 -76.562500 -2.314453 9.550781 -47.460281 -1.881291 -1.950007 -5.447406 53.701855 -1.195079 -2.000000 2.000000 0.000000 81.621094 -8.662109 -6.534672 50.980087 1.449977 -2.102856 9.725614 -46.925087 -7.613825 -4.853180 13.769047 -15.446408 10.028490 -5.477356 -1.531613 4.135289 8.089209 -15.979378 7.356632 3.900543 -18.889685 2.882281 5.908997 0.230030 -0.276550 3.199272 19.215601 
-0.734804 53.865444 1.255067 179.111343 174.375000 6.416973 23.262199 -11.850730 2.071146 -11.777344 9.462891 6.298828 51.553619 8.070152 2.616707 -77.363289 15.537107 -26.445311 2.000000 -2.000000 0.000000 -76.904297 -2.529297 9.677303 -47.460281 -1.881291 -1.950007 -5.637558 53.615337 -1.678412 -2.000000 2.000000 0.000000 81.132813 -8.847656 -6.699219 51.145824 1.459157 -2.092544 10.104986 -47.105415 -7.957536 -5.416963 13.599785 -15.323192 11.092159 -5.291687 -1.793754 4.022951 8.484002 -16.321539 7.340787 3.864513 -18.522415 2.881218 5.909523 0.210547 0.087555 3.311305 19.275810 
-0.712352 53.889179 1.548579 179.287125 174.199219 6.250987 23.573662 -11.934081 2.240066 -12.109375 9.814453 6.349321 51.553619 8.070152 2.616707 -78.056641 14.726561 -26.403769 2.000000 -2.000000 0.000000 -77.265625 -2.382813 9.970703 -47.438324 -2.160028 -1.865252 -6.038812 53.725819 -2.335390 -2.000000 2.000000 0.000000 80.781250 -9.091797 -6.669921 51.321606 1.459157 -2.092544 10.047614 -47.202389 -8.164854 -6.127044 13.616302 -15.886718 12.693357 -5.533465 -1.854207 4.751847 8.227224 -15.283843 7.337056 3.666514 -18.195126 2.862146 5.907876 0.374542 0.618304 3.460901 19.550604 
-0.724544 53.841717 1.936485 179.638687 174.189453 5.938489 23.925224 -11.934081 2.240066 -12.626953 10.195313 6.368917 51.553619 8.070152 2.616707 -78.759766 13.935547 -26.130461 2.000000 -2.000000 0.000000 -78.017578 -2.207031 10.419547 -47.636044 -1.891040 -1.949437 -6.100922 53.755608 -2.315470 -2.000000 2.000000 0.000000 80.488281 -9.775391 -6.679688 51.845268 1.607749 -1.956505 9.917691 -47.278969 -8.392085 -6.937505 13.811912 -16.702776 14.257300 -5.517149 -1.822854 4.824942 8.098338 -15.369656 7.320037 3.639006 -17.856161 3.068727 5.913522 0.402671 0.432335 3.319597 19.630375 
-0.762684 53.770565 2.402270 179.814468 174.189453 5.782239 24.422934 -12.023122 2.394430 -13.134766 10.556643 6.368977 51.553619 8.070152 2.616707 -79.453125 13.125000 -26.062235 2.000000 -2.000000 0.000000 -78.603516 -1.777344 10.751953 -47.639729 -1.761947 -2.084411 -5.945247 53.900887 -2.280034 -2.000000 2.000000 0.000000 80.195313 -10.146485 -6.193127 51.666195 1.709702 -2.195314 9.735491 -46.895905 -8.267747 -8.276320 12.964442 -16.790009 16.551365 -5.067957 -2.150969 5.216787 7.765346 -14.195311 7.288813 3.618089 -17.497534 3.056475 5.908881 0.391033 0.600215 3.528039 19.907883 
